<svg width="24" height="24" viewBox="0 0 24 24" fill="none" xmlns="http://www.w3.org/2000/svg">
<path d="M10 15L10 12" stroke="#1F2324" stroke-width="1.2" stroke-linecap="round"/>
<path d="M14 15L14 12" stroke="#1F2324" stroke-width="1.2" stroke-linecap="round"/>
<path d="M3 7H21V7C20.0681 7 19.6022 7 19.2346 7.15224C18.7446 7.35523 18.3552 7.74458 18.1522 8.23463C18 8.60218 18 9.06812 18 10V16C18 17.8856 18 18.8284 17.4142 19.4142C16.8284 20 15.8856 20 14 20H10C8.11438 20 7.17157 20 6.58579 19.4142C6 18.8284 6 17.8856 6 16V10C6 9.06812 6 8.60218 5.84776 8.23463C5.64477 7.74458 5.25542 7.35523 4.76537 7.15224C4.39782 7 3.93188 7 3 7V7Z" fill="#7E869E" fill-opacity="0.25"/>
<path d="M19.2346 7.15224L19.4642 7.70657L19.2346 7.15224ZM18.1522 8.23463L17.5979 8.00502L18.1522 8.23463ZM5.84776 8.23463L5.29343 8.46424L5.84776 8.23463ZM6.58579 19.4142L7.01005 18.9899L6.58579 19.4142ZM17.4142 19.4142L16.9899 18.9899L17.4142 19.4142ZM3 7.6H21V6.4H3V7.6ZM14 19.4H10V20.6H14V19.4ZM6.6 16V10H5.4V16H6.6ZM17.4 10V16H18.6V10H17.4ZM21 6.4C20.5423 6.4 20.1689 6.39968 19.8648 6.42042C19.5554 6.44154 19.2741 6.48646 19.005 6.59791L19.4642 7.70657C19.5627 7.66578 19.6982 7.63458 19.9465 7.61764C20.2003 7.60032 20.5258 7.6 21 7.6V6.4ZM18.6 10C18.6 9.52585 18.6003 9.20028 18.6176 8.94653C18.6346 8.69817 18.6658 8.56272 18.7066 8.46424L17.5979 8.00502C17.4865 8.27409 17.4415 8.55538 17.4204 8.86485C17.3997 9.16892 17.4 9.54227 17.4 10H18.6ZM19.005 6.59791C18.368 6.8618 17.8618 7.36795 17.5979 8.00502L18.7066 8.46424C18.8487 8.1212 19.1212 7.84866 19.4642 7.70657L19.005 6.59791ZM6.6 10C6.6 9.54227 6.60032 9.16892 6.57958 8.86485C6.55846 8.55538 6.51354 8.27409 6.40209 8.00502L5.29343 8.46424C5.33422 8.56272 5.36542 8.69817 5.38236 8.94653C5.39968 9.20028 5.4 9.52585 5.4 10H6.6ZM3 7.6C3.47415 7.6 3.79972 7.60032 4.05347 7.61764C4.30183 7.63458 4.43728 7.66578 4.53576 7.70657L4.99498 6.59791C4.72591 6.48646 4.44462 6.44154 4.13515 6.42042C3.83108 6.39968 3.45773 6.4 3 6.4V7.6ZM6.40209 8.00502C6.1382 7.36795 5.63205 6.8618 4.99498 6.59791L4.53576 7.70657C4.8788 7.84866 5.15134 8.1212 5.29343 8.46424L6.40209 8.00502ZM10 19.4C9.04023 19.4 8.38076 19.3987 7.88541 19.3321C7.40731 19.2678 7.17288 19.1528 7.01005 18.9899L6.16152 19.8385C6.58448 20.2614 7.11435 20.4393 7.72551 20.5214C8.31941 20.6013 9.07415 20.6 10 20.6V19.4ZM5.4 16C5.4 16.9258 5.39873 17.6806 5.47857 18.2745C5.56074 18.8857 5.73857 19.4155 6.16152 19.8385L7.01005 18.9899C6.84722 18.8271 6.73215 18.5927 6.66787 18.1146C6.60127 17.6192 6.6 16.9598 6.6 16H5.4ZM14 20.6C14.9258 20.6 15.6806 20.6013 16.2745 20.5214C16.8857 20.4393 17.4155 20.2614 17.8385 19.8385L16.9899 18.9899C16.8271 19.1528 16.5927 19.2678 16.1146 19.3321C15.6192 19.3987 14.9598 19.4 14 19.4V20.6ZM17.4 16C17.4 16.9598 17.3987 17.6192 17.3321 18.1146C17.2678 18.5927 17.1528 18.8271 16.9899 18.9899L17.8385 19.8385C18.2614 19.4155 18.4393 18.8857 18.5214 18.2745C18.6013 17.6806 18.6 16.9258 18.6 16H17.4Z" fill="#1F2324"/>
<path d="M10.0681 3.37059C10.1821 3.26427 10.4332 3.17033 10.7825 3.10332C11.1318 3.03632 11.5597 3 12 3C12.4403 3 12.8682 3.03632 13.2175 3.10332C13.5668 3.17033 13.8179 3.26427 13.9319 3.37059" stroke="#1F2324" stroke-width="1.2" stroke-linecap="round"/>
</svg>
